PathFileType	4	(X/Y/Z)	Run_300 02
DataRate	CameraRate	NumFrames	NumMarkers	Units	OrigDataRate	OrigDataStartFrame	OrigNumFrames
100	100	7	42	mm	100	88	128
Frame#	Time	LASI			RASI			LPSI			RPSI			RTH1			RTH2			RTH3			LTH1			LTH2			LTH3			RTB1			RTB2			RTB3			LTB1			LTB2			LTB3			RCAL			RTOE			RMT5			LCAL			LTOE			LMT5			LACR			RACR			CLAV			C7			RUA1			RUA2			RUA3			RLEL			RMEL			LUA1			LUA2			LUA3			LLEL			LMEL			RFAsuperior			RFAradius			RFAulna			LFAsuperior			LFAradius			LFAulna			
		X1	Y1	Z1	X2	Y2	Z2	X3	Y3	Z3	X4	Y4	Z4	X5	Y5	Z5	X6	Y6	Z6	X7	Y7	Z7	X8	Y8	Z8	X9	Y9	Z9	X10	Y10	Z10	X11	Y11	Z11	X12	Y12	Z12	X13	Y13	Z13	X14	Y14	Z14	X15	Y15	Z15	X16	Y16	Z16	X17	Y17	Z17	X18	Y18	Z18	X19	Y19	Z19	X20	Y20	Z20	X21	Y21	Z21	X22	Y22	Z22	X23	Y23	Z23	X24	Y24	Z24	X25	Y25	Z25	X26	Y26	Z26	X27	Y27	Z27	X28	Y28	Z28	X29	Y29	Z29	X30	Y30	Z30	X31	Y31	Z31	X32	Y32	Z32	X33	Y33	Z33	X34	Y34	Z34	X35	Y35	Z35	X36	Y36	Z36	X37	Y37	Z37	X38	Y38	Z38	X39	Y39	Z39	X40	Y40	Z40	X41	Y41	Z41	X42	Y42	Z42	

77	1.19	832.264498	969.7574080000001	-492.269138	823.0967460000001	996.226509	-221.882561	653.406176	993.2587	-417.821602	642.31391	1001.74747	-316.557742	763.576378	802.732088	-184.692047	874.288465	721.949539	-203.58774	836.782686	590.076974	-243.328361	764.617319	773.651581	-526.469395	835.3657899999999	650.1382149999999	-519.466923	788.832824	534.799537	-503.076422	901.771918	368.340049	-339.177247	871.678755	312.183449	-277.370434	843.175067	203.500899	-340.69647	696.054614	379.088983	-443.44656	597.561843	399.809594	-500.914433	540.163355	349.147251	-444.864461	702.608776	99.664423	-366.61103	927.3765079999999	62.046387	-376.209977	872.912881	56.633136	-284.862204	405.108036	442.831581	-426.132217	378.627182	214.585037	-433.189792	351.040691	275.77246	-515.3680450000001	844.9766090000001	1441.24552	-538.082164	818.44664	1463.924445	-201.839678	881.984245	1388.466443	-331.427748	767.0027689999999	1480.027539	-372.953339	751.203775	1396.393448	-122.985368	675.4694500000001	1333.498788	-151.399081	691.136494	1284.766886	-95.189072	632.272258	1194.186765	-67.575852	631.707345	1176.529863	-147.941788	802.674268	1352.172405	-613.7566870000001	737.501377	1275.886155	-595.508884	757.07455	1214.11635	-646.69677	758.055627	1129.104124	-669.981412	720.071909	1121.411607	-605.960863	722.608779	1137.60442	-44.922127	858.636182	1061.890861	-59.043981	810.293829	1008.593178	-51.189281	857.953907	1088.222341	-634.7538939999999	967.45452	1037.282151	-522.365692	953.400944	980.790299	-563.124558	
78	1.2	829.603833	967.1019230000001	-493.629347	821.72381	994.6116919999999	-221.45161	652.970315	992.340815	-419.062611	641.415662	1001.935915	-316.962848	758.942371	801.589142	-184.349478	865.758303	717.325588	-203.057192	823.02607	585.9175	-244.616604	767.033574	770.2266090000001	-524.727582	846.731628	650.106997	-520.610412	806.433926	534.346957	-503.940869	885.610785	363.1416	-337.890471	853.809565	308.039012	-276.262647	819.19089	200.667476	-342.111125	719.660966	378.940681	-443.582773	623.536913	399.194486	-503.401312	564.958984	347.216892	-444.888189	672.783843	100.776777	-366.149286	897.02676	61.31777	-375.798976	842.688764	56.506279	-284.225319	425.744675	439.283055	-425.984121	407.267402	210.072364	-435.840254	380.789727	270.701426	-517.425748	841.40856	1439.47248	-538.305253	819.868999	1460.778851	-201.519013	881.232985	1386.410064	-332.437247	766.619876	1477.812855	-372.482801	754.616339	1392.506655	-121.272541	680.702129	1326.391391	-148.127655	698.835091	1279.704242	-90.96321	643.864552	1187.445848	-59.978726	640.470292	1169.076126	-139.696506	797.113967	1350.425707	-613.547268	732.381569	1274.340142	-592.506706	749.080593	1212.703203	-644.489864	748.335464	1127.88385	-668.671656	712.519978	1119.920647	-603.435326	736.0179910000001	1132.248942	-41.17484	871.336453	1057.458861	-58.528673	823.667692	1003.86646	-48.799588	845.668996	1081.789469	-635.72952	955.973008	1018.387956	-530.566878	938.2410599999999	964.8296759999999	-574.502358	
79	1.21	827.668589	967.73932	-494.287251	820.571385	993.180213	-221.807777	652.68407	991.848977	-419.677696	640.8338199999999	1002.370869	-316.805633	754.311967	801.765594	-183.605188	855.0391990000001	712.653377	-202.078198	808.4265830000001	583.529459	-244.996411	767.946432	768.501613	-524.130014	857.455036	652.121754	-520.660562	824.0833260000001	535.593936	-504.563864	867.519413	357.657302	-338.35268	834.020656	303.620285	-276.900918	794.8577289999999	199.129201	-345.012771	743.8984840000001	379.512449	-443.12374	650.639718	399.267989	-506.85848	590.361466	344.851748	-444.576164	642.810105	101.97225	-365.601048	866.428763	60.725175	-374.444065	812.527802	56.374415	-282.630085	446.013451	433.476012	-426.846055	438.139767	203.891765	-437.609351	412.219509	263.011051	-519.420306	838.41114	1438.872783	-538.275316	821.673683	1459.024775	-201.261279	880.626887	1385.437499	-333.330748	766.407897	1476.706624	-371.879481	757.984136	1390.428199	-119.786574	686.035175	1321.680486	-146.520299	705.816019	1276.705422	-87.636585	655.348294	1182.998827	-53.24119	649.191371	1163.954802	-132.355314	792.383784	1349.930197	-613.688308	728.080271	1274.168258	-589.970085	741.322852	1212.826223	-642.544044	738.735977	1128.380598	-667.256404	704.885667	1120.517434	-600.930399	749.152997	1129.125241	-38.017506	884.364732	1055.331054	-58.750738	837.320005	1001.430979	-47.12651	833.616766	1077.879582	-636.779028	942.917769	1002.414107	-538.818417	922.307877	952.25853	-586.358954	
80	1.22	826.940125	970.605888	-493.836599	819.690029	992.487262	-222.523656	652.042878	992.170892	-419.47056	640.423047	1003.636643	-316.789287	749.001573	802.612262	-182.955326	844.33849	709.376795	-201.598237	794.551344	582.751345	-243.819214	768.893131	768.784717	-524.598844	867.7737049999999	656.419957	-520.493935	841.55942	538.988601	-505.118402	844.892878	352.364187	-339.807104	809.696549	299.399794	-278.529706	769.881519	198.855527	-348.426821	768.424849	380.815603	-442.148872	677.280721	399.213126	-509.858214	615.971394	341.979912	-444.23513	612.892253	102.987438	-365.321468	836.227001	60.696915	-373.296249	782.803848	56.257053	-281.599807	465.867608	425.175202	-428.418358	471.070037	195.981985	-438.200588	444.84377	252.549362	-521.1043110000001	835.885726	1439.266969	-538.337116	823.613723	1458.903927	-201.13219	880.208568	1385.630649	-334.030805	766.1465020000001	1477.034882	-370.922492	761.9032089999999	1389.985812	-118.353834	691.383109	1319.512698	-145.286715	712.409673	1275.600967	-84.96564499999999	666.252869	1180.696278	-47.783517	657.418489	1161.010738	-126.348247	788.436387	1350.672079	-614.093183	724.132037	1275.484906	-587.788095	733.168544	1214.789028	-640.692443	728.145131	1130.804479	-665.96525	696.195111	1123.256113	-598.8020780000001	761.356688	1128.071938	-35.282614	897.208728	1055.880577	-59.642582	850.950123	1001.498419	-46.228139	821.356037	1076.050416	-638.5624780000001	928.702312	990.7475020000001	-546.8707010000001	905.220245	944.160157	-597.75155	
81	1.23	827.244812	974.4619279999999	-492.727082	819.223979	992.948586	-223.196754	651.011974	993.916826	-418.50507	640.367357	1006.131133	-317.088887	742.597919	803.841724	-182.751849	834.831906	707.9013650000001	-202.081217	781.121793	582.660737	-241.781896	771.371075	770.9995699999999	-525.558204	877.760864	662.946419	-520.872568	858.442797	544.977702	-505.749171	818.895315	348.36158	-340.889137	781.990683	296.468093	-279.788152	744.112833	199.377702	-351.266577	792.8771369999999	382.846688	-440.762398	702.5270400000001	398.356643	-511.230863	641.679498	338.645169	-443.893072	583.167103	104.07189	-365.148948	806.298505	60.940444	-372.737407	753.007652	56.063725	-281.411239	485.513352	414.259906	-430.292114	506.353576	186.031537	-437.236431	477.885027	239.380903	-521.781008	833.539279	1440.6748	-538.667206	825.480045	1460.485584	-201.28601	879.799562	1387.172331	-334.735611	765.51116	1478.849935	-369.78189	766.52868	1391.143979	-117.006285	696.559387	1319.746829	-143.298715	718.949264	1276.269294	-82.755656	676.341016	1180.417779	-43.538935	664.829793	1160.08594	-121.552261	784.8379	1352.874675	-614.617405	720.0580650000001	1278.830054	-585.377208	723.879802	1219.014579	-638.632351	715.739547	1135.482307	-664.965069	685.709985	1128.234575	-597.050105	772.508728	1129.069365	-33.079955	909.33807	1059.238446	-61.18068	864.3184649999999	1004.132822	-46.259614	807.553042	1076.237859	-641.47229	913.708844	984.1163780000001	-554.941293	886.5873309999999	940.795129	-607.754645	
82	1.24	827.838031	978.587687	-491.765998	819.313545	994.46151	-223.480534	650.0411769999999	997.290401	-417.245405	640.878072	1009.671567	-317.235163	735.686924	805.762893	-183.006892	826.091984	707.659858	-203.233513	766.9523380000001	582.99529	-240.171631	775.563311	774.770384	-526.4877739999999	887.27975	671.370256	-521.66425	874.225646	553.444444	-506.322891	792.899373	346.646484	-340.911081	754.287769	295.816581	-279.987098	717.525528	200.427951	-352.793611	816.873931	385.59859	-439.089109	726.308641	396.76772	-510.736906	667.462598	334.884678	-443.356711	553.7477249999999	105.90733	-364.635184	776.219053	61.059012	-372.487062	722.651376	55.81843	-281.48708	505.43189	400.807802	-432.134382	544.408419	174.171445	-434.678307	511.184677	224.094973	-521.10052	831.22429	1443.224901	-539.202534	827.2510129999999	1463.66191	-201.786689	879.356688	1390.134732	-335.648857	764.561853	1481.887184	-368.87442	771.4669280000001	1393.909162	-115.939958	701.29713	1322.036823	-140.323182	725.483628	1278.579728	-80.942311	685.5614399999999	1182.096993	-40.134515	671.2643839999999	1161.078508	-117.544088	780.753061	1356.831301	-615.0891810000001	715.2597469999999	1284.650982	-582.267646	713.092365	1225.720423	-636.200157	701.465047	1142.641734	-664.113977	673.387761	1135.602287	-595.37825	782.832757	1132.240536	-31.662559	920.5497789999999	1065.271011	-63.304959	877.2424580000001	1009.235411	-47.320777	791.420316	1079.021401	-645.453875	898.33415	982.532428	-563.416773	866.851094	941.744533	-616.069436	
83	1.25	827.851916	982.9677	-491.476824	820.01144	996.559366	-223.161877	649.686881	1002.021384	-416.246972	641.9890830000001	1013.713842	-316.709302	729.429214	808.638995	-183.497108	817.116544	707.956065	-204.5597	751.343333	584.350501	-239.804188	780.494037	779.715178	-527.08704	896.300574	681.272028	-522.160952	888.630423	563.709817	-506.517208	768.569166	347.086519	-340.118254	728.274621	297.313525	-279.366387	690.2172839999999	202.092199	-352.745882	840.041206	389.049641	-437.268444	748.914753	395.123564	-509.014721	693.26894	330.709909	-442.470944	524.772925	109.135881	-363.547134	745.987617	61.172606	-372.057137	692.016382	55.753267	-281.292118	526.056521	385.030293	-433.653565	584.8419290000001	161.435578	-431.033538	545.5809860000001	207.647594	-519.453043	828.95874	1447.021434	-539.74586	829.046048	1468.23184	-202.575663	879.109043	1394.398621	-336.800145	763.791803	1485.749124	-368.530405	776.119051	1398.214955	-115.331345	705.4486889999999	1326.006946	-136.946166	731.85966	1282.349712	-79.522227	693.9416199999999	1185.559295	-37.346278	676.756112	1163.819766	-114.116695	775.305581	1362.709465	-615.299844	709.145414	1292.843562	-578.592114	701.0699059999999	1234.731586	-633.508277	685.954794	1152.245053	-663.086726	659.832953	1145.381114	-593.459966	792.494289	1137.580021	-31.134184	930.957239	1073.627403	-65.852772	889.521963	1016.56292	-49.227747	773.7502919999999	1085.020927	-649.855785	882.924124	985.541618	-572.208138	847.280656	946.304261	-622.978631	
